<?xml version="1.0" encoding="utf-8"?><svg width="32" height="192" viewBox="0 0 32 192" xmlns="http://www.w3.org/2000/svg" xmlns:xlink="http://www.w3.org/1999/xlink"><svg width="32" height="32" viewBox="0 0 32 32" id="airplane" xmlns="http://www.w3.org/2000/svg"><title>airplane</title><path d="M24 19.999l-5.713-5.713L32 4l-4-4-17.141 6.858-5.397-5.397C3.906-.095 1.734-.467.634.633s-.727 3.273.828 4.828l5.396 5.396L0 28l4 4 10.287-13.715L20 23.998v7.999h4l2-6 6-2v-4h-7.999z"/></svg><svg width="32" height="32" viewBox="0 0 32 32" id="fire" y="32" xmlns="http://www.w3.org/2000/svg"><title>fire</title><path d="M10.031 32c-2.133-4.438-.997-6.981.642-9.376 1.795-2.624 2.258-5.221 2.258-5.221s1.411 1.834.847 4.703c2.493-2.775 2.963-7.196 2.587-8.889C22 17.155 24.408 25.681 21.163 32c17.262-9.767 4.294-24.38 2.036-26.027.753 1.646.895 4.433-.625 5.785C20.001 1.999 13.637-.001 13.637-.001c.753 5.033-2.728 10.536-6.084 14.648-.118-2.007-.243-3.392-1.298-5.312-.237 3.646-3.023 6.617-3.777 10.27-1.022 4.946.765 8.568 7.555 12.394z"/></svg><svg width="32" height="32" viewBox="0 0 32 32" id="lab" y="64" xmlns="http://www.w3.org/2000/svg"><title>lab</title><path d="M29.884 25.14L20 8.67V1.999h1c.55 0 1-.45 1-1s-.45-1-1-1H11c-.55 0-1 .45-1 1s.45 1 1 1h1V8.67L2.116 25.14C-.148 28.913 1.6 32 6 32h20c4.4 0 6.148-3.087 3.884-6.86zM7.532 20L14 9.221V2h4v7.221L24.468 20H7.533z"/></svg><svg width="32" height="32" viewBox="0 0 32 32" id="power" y="96" xmlns="http://www.w3.org/2000/svg"><title>power</title><path d="M12 0L0 16h12L4 32l28-20H16L28 0z"/></svg><svg width="32" height="32" viewBox="0 0 32 32" id="shield" y="128" xmlns="http://www.w3.org/2000/svg"><title>shield</title><path d="M30 0L16 4 2 0s-.141 1.616 0 4l14 4.378L30 4c.141-2.384 0-4 0-4zM2.256 6.097C3.006 13.931 5.803 27.104 16 32c10.197-4.896 12.995-18.069 13.744-25.903L16 11.264 2.256 6.097z"/></svg><svg width="32" height="32" viewBox="0 0 32 32" id="switch" y="160" xmlns="http://www.w3.org/2000/svg"><title>switch</title><path d="M20 4.581V8.83a10 10 0 0 1 3.071 2.099C24.96 12.818 26 15.329 26 18s-1.04 5.182-2.929 7.071C21.182 26.96 18.671 28 16 28s-5.182-1.04-7.071-2.929C7.04 23.182 6 20.671 6 18s1.04-5.182 2.929-7.071A9.982 9.982 0 0 1 12 8.83V4.581C6.217 6.302 2 11.658 2 18c0 7.732 6.268 14 14 14s14-6.268 14-14c0-6.342-4.217-11.698-10-13.419zM14 0h4v16h-4z"/></svg></svg>