<!-- Generated by IcoMoon.io -->
<svg version="1.1" xmlns="http://www.w3.org/2000/svg" width="48" height="48" viewBox="0 0 48 48">
<title>vk</title>
<path d="M43.5 0h-39c-2.475 0-4.5 2.025-4.5 4.5v39c0 2.475 2.025 4.5 4.5 4.5h39c2.475 0 4.5-2.025 4.5-4.5v-39c0-2.475-2.025-4.5-4.5-4.5zM38.878 33.6l-4.388 0.066c0 0-0.947 0.188-2.184-0.666-1.641-1.125-3.188-4.059-4.397-3.675-1.219 0.384-1.181 3.019-1.181 3.019s0.009 0.563-0.272 0.863c-0.3 0.328-0.9 0.394-0.9 0.394h-1.959c0 0-4.331 0.263-8.147-3.713-4.163-4.331-7.837-12.928-7.837-12.928s-0.216-0.563 0.019-0.834c0.263-0.309 0.966-0.328 0.966-0.328l4.697-0.028c0 0 0.441 0.075 0.759 0.309 0.263 0.188 0.403 0.553 0.403 0.553s0.759 1.922 1.762 3.656c1.959 3.384 2.878 4.125 3.544 3.769 0.966-0.525 0.675-4.791 0.675-4.791s0.019-1.547-0.487-2.231c-0.394-0.534-1.134-0.694-1.453-0.731-0.263-0.038 0.169-0.647 0.731-0.928 0.844-0.413 2.334-0.441 4.097-0.422 1.369 0.009 1.772 0.103 2.306 0.225 1.622 0.394 1.069 1.903 1.069 5.522 0 1.163-0.206 2.794 0.628 3.328 0.356 0.234 1.238 0.038 3.441-3.703 1.041-1.772 1.828-3.853 1.828-3.853s0.169-0.375 0.431-0.534c0.272-0.159 0.638-0.113 0.638-0.113l4.941-0.028c0 0 1.481-0.178 1.725 0.497 0.253 0.703-0.553 2.344-2.569 5.034-3.309 4.416-3.684 4.003-0.928 6.553 2.625 2.438 3.169 3.628 3.263 3.778 1.069 1.8-1.219 1.941-1.219 1.941z"></path>
</svg>
